<?xml version="1.0" encoding="UTF-8"?>
<svg width="16px" height="16px" viewBox="0 0 16 16" version="1.1" xmlns="http://www.w3.org/2000/svg">
    <!-- Generator: Sketch 42 (36781) - http://www.bohemiancoding.com/sketch -->
    <title>icn_surescripts</title>
    <desc>Created with Sketch.</desc>
    <defs></defs>
    <g id="Page-1" stroke="none" stroke-width="1" fill="none" fill-rule="evenodd">
        <g id="icn_surescripts" fill="#000000">
            <path d="M5.41213609,10.3201538 C5.79071787,10.6446525 6.20985569,10.9096558 6.66956213,11.1151716 C7.12926857,11.3206874 7.58085577,11.4234438 8.02433728,11.4234438 C8.5219019,11.4234438 8.89236565,11.3315039 9.13573964,11.1476213 C9.37911364,10.9637387 9.50079882,10.7149601 9.50079882,10.4012781 C9.50079882,10.2390288 9.46564532,10.0984148 9.39533728,9.97943195 C9.32502923,9.86044911 9.22227287,9.75498863 9.08706509,9.66304734 C8.95185731,9.57110605 8.78961041,9.48457437 8.60031953,9.4034497 L7.97566272,9.13573964 L6.5965503,8.55164497 C6.32613474,8.44347875 6.06383559,8.30286477 5.80964497,8.12979882 C5.55545435,7.95673286 5.32830869,7.75392424 5.12820118,7.52136686 C4.92809367,7.28880949 4.76855089,7.01839799 4.64956805,6.71012426 C4.5305852,6.40185053 4.47109467,6.0530197 4.47109467,5.6636213 C4.47109467,5.23095642 4.56303458,4.82263506 4.74691716,4.43864497 C4.93079974,4.05465488 5.19039477,3.71934463 5.52571006,3.43270414 C5.86102535,3.14606366 6.25853025,2.92162211 6.71823669,2.75937278 C7.17794313,2.59712345 7.68361263,2.516 8.23526036,2.516 C8.85180782,2.516 9.46023368,2.63498106 10.0605562,2.87294675 C10.6608787,3.11091243 11.1881812,3.45703915 11.6424793,3.91133728 L10.4256154,5.42024852 C10.0794835,5.14983297 9.73335676,4.94161611 9.38722485,4.79559172 C9.04109294,4.64956732 8.65710862,4.57655621 8.23526036,4.57655621 C7.82422871,4.57655621 7.4970308,4.66038378 7.2536568,4.82804142 C7.01028281,4.99569906 6.88859763,5.23095707 6.88859763,5.53382249 C6.88859763,5.69607182 6.92915936,5.83398168 7.01028402,5.94755621 C7.09140869,6.06113075 7.20498152,6.16388711 7.35100592,6.2558284 C7.49703032,6.34776969 7.66738956,6.43430137 7.86208876,6.51542604 C8.05678796,6.5965507 8.26770892,6.6857865 8.49485799,6.78313609 L9.85774556,7.33478107 C10.5067429,7.59438 11.0178206,7.95132317 11.3909941,8.4056213 C11.7641675,8.85991943 11.9507515,9.46023295 11.9507515,10.2065799 C11.9507515,10.6500614 11.8615157,11.0691992 11.6830414,11.4640059 C11.5045672,11.8588126 11.2449721,12.2049393 10.9042485,12.5023964 C10.5635249,12.7998536 10.1443871,13.0378157 9.64682249,13.2162899 C9.14925787,13.3947642 8.58680195,13.484 7.95943787,13.484 C7.26717405,13.484 6.57762474,13.3569066 5.89076923,13.102716 C5.20391373,12.8485254 4.59007963,12.4672451 4.04924852,11.9588639 L5.41213609,10.3201538 Z" id="S"></path>
        </g>
    </g>
</svg>