<?xml version="1.0" encoding="UTF-8"?>
<svg width="16px" height="16px" viewBox="0 0 16 16" version="1.1" xmlns="http://www.w3.org/2000/svg">
    <!-- Generator: Sketch 42 (36781) - http://www.bohemiancoding.com/sketch -->
    <title>icn_pharmacy</title>
    <desc>Created with Sketch.</desc>
    <defs></defs>
    <g id="Page-1" stroke="none" stroke-width="1" fill="none" fill-rule="evenodd">
        <g id="icn_pharmacy" fill="#333333">
            <path d="M12.8102997,16 C12.8202156,15.9571697 12.8252696,15.9138623 12.8252696,15.8701444 C12.8252696,15.332296 12.0603185,14.8565689 10.8880588,14.5673151 C13.3082662,13.5259808 14.9910698,11.2181586 14.9910698,8.53842571 C14.9910698,8.35715639 14.9833697,8.17758886 14.968262,8 L1.02280781,8 C1.00770015,8.17758886 1,8.35715639 1,8.53842571 C1,11.2867861 2.77009989,13.6439427 5.29038934,14.6448133 C4.28304345,14.9376639 3.64227635,15.377886 3.64227635,15.8701444 C3.64227635,15.9138623 3.64733031,15.9571697 3.65724618,16 L12.8102997,16 Z" id="mortar"></path>
            <g id="pestle" transform="translate(11.045110, 3.534010) rotate(22.500000) translate(-11.045110, -3.534010) translate(9.045110, -0.465990)">
                <path d="M1.50877062,1.92654409 C1.5440201,1.40712544 1.96613547,0.996979594 2.48167841,0.996979594 C3.02031596,0.996979594 3.45696797,1.44469484 3.45696797,1.99697959 C3.45696797,2.00035132 3.4569517,2.00371916 3.45691922,2.00708301 L3.95399112,6.56413525 L0.506388841,7.99217887 L1.50877062,1.92654409 Z" id="Combined-Shape"></path>
            </g>
        </g>
    </g>
</svg>