<?xml version="1.0" encoding="UTF-8"?>
<svg width="16px" height="16px" viewBox="0 0 16 16" version="1.1" xmlns="http://www.w3.org/2000/svg">
    <!-- Generator: Sketch 42 (36781) - http://www.bohemiancoding.com/sketch -->
    <title>Rx</title>
    <desc>Created with Sketch.</desc>
    <defs></defs>
    <g id="Page-1" stroke="none" stroke-width="1" fill="none" fill-rule="evenodd">
        <g id="Artboard" transform="translate(-698.000000, -309.000000)" fill="#333333">
            <g id="DrugEntry" transform="translate(694.000000, 298.000000)">
                <g id="icon_side_bar">
                    <path d="M6.41684985,16.5713313 L7.66637766,16.5713313 C8.30210552,16.5713313 8.78711475,16.4370334 9.12141992,16.1684335 C9.45572508,15.8998337 9.62287516,15.5024215 9.62287516,14.976185 C9.62287516,14.4499486 9.45572508,14.0826849 9.12141992,13.874383 C8.78711475,13.666081 8.30210552,13.5619316 7.66637766,13.5619316 L6.41684985,13.5619316 L6.41684985,16.5713313 Z M9.80372787,22.3599034 L7.74858344,18.4953737 L6.41684985,18.4953737 L6.41684985,22.3599034 L4,22.3599034 L4,11.6378892 L7.86367153,11.6378892 C8.43363443,11.6378892 8.96796664,11.6927047 9.46668418,11.8023373 C9.96540172,11.9119699 10.401088,12.0956017 10.773756,12.3532383 C11.1464241,12.6108749 11.4423619,12.9534716 11.6615784,13.3810388 C11.8807949,13.8086059 11.9904015,14.340316 11.9904015,14.976185 C11.9904015,15.7655397 11.8177711,16.4151031 11.4725051,16.9248947 C11.1272392,17.4346862 10.6641512,17.8156538 10.0832275,18.0678088 L12.5165185,22.3599034 L9.80372787,22.3599034 Z M14.5042564,22.2024847 L12.1512884,18.3653103 L14.7510713,18.3653103 L15.4750614,19.6551168 C15.5847575,19.8808341 15.6971942,20.109235 15.812375,20.3403265 C15.9275559,20.571418 16.0454773,20.799819 16.166143,21.0255362 L16.2319603,21.0255362 C16.3197171,20.799819 16.4129573,20.571418 16.5116837,20.3403265 C16.6104102,20.109235 16.7036504,19.8808341 16.7914072,19.6551168 L17.3508542,18.3653103 L19.8519111,18.3653103 L17.4824887,22.4765686 L20,26.3621108 L17.4002171,26.3621108 L16.6104097,25.0400591 C16.4787744,24.8143418 16.3498835,24.5832538 16.2237331,24.3467881 C16.0975827,24.1103224 15.9686918,23.8792343 15.8370565,23.6535171 L15.7712392,23.6535171 C15.6725128,23.8792343 15.5683031,24.1076353 15.4586071,24.3387268 C15.3489111,24.5698183 15.2447014,24.8035934 15.145975,25.0400591 L14.5042564,26.3621108 L12.0031995,26.3621108 L14.5042564,22.2024847 Z" id="Rx"></path>
                </g>
            </g>
        </g>
    </g>
</svg>